<?xml version="1.0" standalone="no"?>
<!DOCTYPE svg PUBLIC "-//W3C//DTD SVG 20010904//EN"
 "http://www.w3.org/TR/2001/REC-SVG-20010904/DTD/svg10.dtd">
<svg version="1.0" xmlns="http://www.w3.org/2000/svg"
 width="1024.000000pt" height="1024.000000pt" viewBox="0 0 1024.000000 1024.000000"
 preserveAspectRatio="xMidYMid meet">
<metadata>
Created by potrace 1.14, written by Peter Selinger 2001-2017
</metadata>
<g transform="translate(0.000000,1024.000000) scale(0.100000,-0.100000)"
fill="#000000" stroke="none">
<path d="M4826 9689 c-881 -56 -1758 -379 -2461 -907 -340 -255 -678 -592
-930 -927 -711 -946 -1027 -2147 -875 -3329 177 -1380 987 -2615 2186 -3336
1431 -860 3220 -881 4673 -55 628 358 1178 874 1574 1481 657 1006 890 2225
652 3410 -303 1501 -1363 2768 -2795 3342 -635 254 -1333 365 -2024 321z m698
-444 c962 -92 1832 -495 2524 -1170 691 -673 1114 -1537 1228 -2510 23 -188
26 -669 6 -855 -81 -761 -355 -1468 -798 -2060 -550 -735 -1319 -1271 -2181
-1519 -401 -116 -745 -164 -1173 -164 -363 0 -669 35 -988 114 -1022 251
-1909 872 -2487 1739 -372 559 -586 1143 -672 1830 -25 205 -25 723 0 930 62
503 195 946 412 1380 196 391 431 721 730 1029 533 548 1147 914 1879 1122
230 65 578 127 801 142 152 10 576 6 719 -8z"/>
<path d="M3418 7445 c-345 -107 -637 -199 -648 -205 -32 -17 -53 -67 -45 -108
8 -44 55 -92 89 -92 15 0 313 88 664 196 569 174 640 198 665 225 61 65 12
181 -76 178 -12 0 -304 -88 -649 -194z"/>
<path d="M6141 7626 c-70 -39 -68 -157 3 -190 51 -23 1271 -396 1298 -396 35
0 74 34 88 75 14 43 -1 99 -34 120 -26 17 -1283 405 -1311 405 -11 -1 -31 -7
-44 -14z"/>
<path d="M2821 6371 l-71 -79 42 -35 c167 -136 412 -248 652 -299 132 -27 357
-30 496 -4 231 42 508 168 689 314 l24 20 -22 28 c-13 16 -45 52 -72 81 l-49
52 -74 -53 c-152 -109 -365 -199 -545 -230 -329 -56 -652 33 -980 272 -16 11
-26 3 -90 -67z"/>
<path d="M5677 6374 c-37 -42 -66 -81 -64 -87 7 -21 198 -146 301 -197 124
-61 280 -113 406 -137 138 -25 363 -23 496 6 206 43 399 125 579 246 128 86
125 76 39 170 l-73 79 -23 -21 c-77 -69 -276 -176 -416 -223 -361 -121 -766
-52 -1098 186 -42 30 -76 54 -77 54 -1 0 -33 -35 -70 -76z"/>
<path d="M2900 3968 c0 -18 36 -223 49 -279 19 -85 73 -224 128 -331 173 -340
482 -627 888 -824 558 -271 1221 -333 1850 -175 188 48 312 94 490 181 479
234 827 605 969 1031 27 81 86 355 86 401 0 5 -1003 8 -2230 8 -1777 0 -2230
-3 -2230 -12z m4054 -316 c8 -14 -81 -189 -143 -279 -326 -476 -972 -773
-1681 -773 -383 0 -726 79 -1050 242 -253 127 -448 284 -594 478 -74 98 -191
313 -180 331 7 11 3641 12 3648 1z"/>
</g>
</svg>
